<svg width="100" height="100" viewBox="0 0 100 100" fill="none" xmlns="http://www.w3.org/2000/svg">
<g clip-path="url(#clip0_13_2)">
<path fill-rule="evenodd" clip-rule="evenodd" d="M46.3542 1.44137C48.3161 -0.501886 51.4821 -0.486934 53.4256 1.47476L58.0248 6.11693H41.6337L46.3542 1.44137ZM6.11448 41.2977V11.1169C6.11448 8.3555 8.35306 6.11693 11.1145 6.11693H41.6337L6.11448 41.2977ZM6.11448 57.6802L1.44162 52.9636C-0.501884 51.0019 -0.486939 47.8363 1.475 45.893L6.11448 41.2977V57.6802ZM41.9754 93.8767H11.1145C8.35306 93.8767 6.11448 91.6381 6.11448 88.8767V57.6802L41.9754 93.8767ZM58.3662 93.8767L53.6458 98.5521C51.6839 100.495 48.5179 100.48 46.5744 98.5187L41.9754 93.8767H58.3662ZM93.8855 58.6958V88.8767C93.8855 91.6381 91.6469 93.8767 88.8855 93.8767H58.3662L93.8855 58.6958ZM93.8855 58.6958V42.3133L98.5584 47.0299C100.502 48.9916 100.487 52.1572 98.525 54.1004L93.8855 58.6958ZM93.8855 42.3133L58.0248 6.11693H88.8855C91.6469 6.11693 93.8855 8.35551 93.8855 11.1169V42.3133ZM46.3832 17.6186C48.3451 15.6753 51.5111 15.6903 53.4546 17.6519L82.3802 46.8482C84.3237 48.8099 84.3087 51.9755 82.3468 53.9187L53.6168 82.375C51.6549 84.3182 48.4889 84.3033 46.5454 82.3416L17.6198 53.1454C15.6763 51.1837 15.6913 48.0181 17.6532 46.0749L46.3832 17.6186Z" fill="#2662F9"/>
</g>
<defs>
<clipPath id="clip0_13_2">
<rect width="100" height="100" fill="white"/>
</clipPath>
</defs>
</svg>
